# xmcd
#
# Track frame offsets:
#	150
#	26664
#	48639
#	69653
#	95992
#	112852
#	126425
#	136241
#	148169
#	187531
#
# Disc length: 2937 seconds
#
# Revision: 0
# Processed by: cddbd v1.5.2PL0 Copyright (c) Steve Scherf et al.
# Submitted via: EZCDAudioConverter 1.0.3.1
#
DISCID=920b770a
DTITLE=Interstate Blues - Redux
DYEAR=2009
DGENRE=Blues
TTITLE0=Got A Fever
TTITLE1=Velvet
TTITLE2=Southern Lips
TTITLE3=Set Me Free
TTITLE4=Movin'
TTITLE5=Razor's Fate
TTITLE6=Rattle Yer Cage
TTITLE7=Let It Go
TTITLE8=Voodoo Child (Slight Return)
TTITLE9=Wounds
EXTD=
EXTT0=
EXTT1=
EXTT2=
EXTT3=
EXTT4=
EXTT5=
EXTT6=
EXTT7=
EXTT8=
EXTT9=
PLAYORDER=
